
        <svg xmlns="http://www.w3.org/2000/svg" xmlns:xlink="http://www.w3.org/1999/xlink" version="1.1" width="3171.4285714285716" 
        height="2100" viewBox="0 0 3171.4285714285716 2100">
			
			<g transform="scale(8.571428571428571) translate(10, 10)">
				<defs id="SvgjsDefs1987"></defs><g id="SvgjsG1988" featureKey="rootContainer" transform="matrix(1,0,0,1,0,0)" fill="#cc0e0e"><rect y="0" height="1" width="1" opacity="0"></rect><rect y="220" width="350" height="5"></rect></g><g id="SvgjsG1989" featureKey="nZbNIw-0" transform="matrix(8.575750313731248,0,0,8.575750313731248,88.49609225522681,-45.13290797423344)" fill="#0a0a0a"><path d="M2.8209 11.9118 l2.1524 0 l0 -3.8369 l-2.7005 0 l0.54813 0.41444 l0 3.4225 z M6.8048 7.2989999999999995 l0 5.4011 c0 0.74866 -0.57487 1.3235 -1.3235 1.3235 l-0.25401 0 l1.5775 5.9492 l-1.8984 0 l-1.5775 -5.9492 l-1.0561 0 l0.54813 0.41444 l0 5.5348 l-1.8449 0 l0 -11.898 l0 -1.6979 l-0.33422 -0.41444 l4.8396 0.013369 c0.74866 0 1.3235 0.57487 1.3235 1.3235 z M8.850302139037433 14.090900000000001 l0.54813 0.40107 l0 3.4225 l2.1524 0 l0 -3.8235 l-2.7005 0 z M9.398402139037433 8.556 l0 3.4091 l2.1524 0 l0 -3.8235 l-2.7005 0 z M13.395702139037432 7.353 l0 4.3449 c0 0.74866 -0.61497 1.3235 -1.3235 1.3235 c0.70856 0 1.3235 0.61497 1.3235 1.3235 l0 4.3583 c0 0.74866 -0.61497 1.3235 -1.3235 1.3235 l-4.5187 0 l0 -13.596 l-0.33422 -0.40107 l4.8529 0 c0.70856 0 1.3235 0.61497 1.3235 1.3235 z M15.481294652406417 6.003 l3.5829 0 l0 2.1123 l-3.623 0 l0.54813 0.40107 c-0.053476 2.3529 -0.053476 7.0321 0 9.3717 l3.0749 0 l0 2.1123 l-3.5829 0 c-0.74866 0 -1.3235 -0.57487 -1.3235 -1.3235 l0 -11.35 c0 -0.74866 0.57487 -1.3235 1.3235 -1.3235 z"></path></g><g id="SvgjsG1990" featureKey="9wBXHa-0" transform="matrix(3.3607195681301882,0,0,3.3607195681301882,-2.1569063676475655,118.96171085703654)" fill="#0a0a0a"><path d="M2.8209 11.9118 l2.1524 0 l0 -3.8369 l-2.7005 0 l0.54813 0.41444 l0 3.4225 z M6.8048 7.2989999999999995 l0 5.4011 c0 0.74866 -0.57487 1.3235 -1.3235 1.3235 l-0.25401 0 l1.5775 5.9492 l-1.8984 0 l-1.5775 -5.9492 l-1.0561 0 l0.54813 0.41444 l0 5.5348 l-1.8449 0 l0 -11.898 l0 -1.6979 l-0.33422 -0.41444 l4.8396 0.013369 c0.74866 0 1.3235 0.57487 1.3235 1.3235 z M7.540105026737968 6.43 l-0.33422 -0.41444 l5.254 0 l0 2.1123 l-3.623 0 l0.54813 0.41444 l0 3.4091 l2.1658 0 l0 2.1257 l-2.7139 0 l0.54813 0.40107 l0 3.4225 l3.0749 0 l0 2.1123 l-4.9198 0 l0 -2.1123 l0 -3.8235 l0 -2.1257 l0 -5.5214 z M15.053482352941177 17.9011 l2.1524 0 l0 -9.7727 l-2.7005 0 l0.54813 0.41444 l0 9.3583 z M19.050782352941177 7.34 l0 11.35 c0 0.74866 -0.58824 1.3235 -1.3369 1.3235 l-4.5053 0 l0 -2.1123 l0 -11.471 l-0.33422 -0.41444 l4.8396 0 c0.73529 0 1.3369 0.61497 1.3369 1.3235 z M24.679179144385024 14.090900000000001 l0.54813 0.40107 l0 3.4225 l2.1524 0 l0 -3.8235 l-2.7005 0 z M25.227279144385026 8.556 l0 3.4091 l2.1524 0 l0 -3.8235 l-2.7005 0 z M29.224579144385025 7.353 l0 4.3449 c0 0.74866 -0.61497 1.3235 -1.3235 1.3235 c0.70856 0 1.3235 0.61497 1.3235 1.3235 l0 4.3583 c0 0.74866 -0.61497 1.3235 -1.3235 1.3235 l-4.5187 0 l0 -13.596 l-0.33422 -0.40107 l4.8529 0 c0.70856 0 1.3235 0.61497 1.3235 1.3235 z M30.01336705882353 6.43 l-0.33422 -0.41444 l5.254 0 l0 2.1123 l-3.623 0 l0.54813 0.41444 l0 3.4091 l2.1658 0 l0 2.1257 l-2.7139 0 l0.54813 0.40107 l0 3.4225 l3.0749 0 l0 2.1123 l-4.9198 0 l0 -2.1123 l0 -3.8235 l0 -2.1257 l0 -5.5214 z M37.62035828877005 15.8021 l1.885 0 l-0.93583 -7.6738 z M35.25400828877005 20.026738 l1.6711 -13.596 l-0.33422 -0.40107 l3.5695 0 l1.7246 13.997 l-1.8583 0 l-0.25401 -2.1123 l-2.9545 -0.013369 l0.49465 0.3877 l-0.2139 1.738 l-1.8449 0 z M44.37170213903743 11.9118 l2.1524 0 l0 -3.8369 l-2.7005 0 l0.54813 0.41444 l0 3.4225 z M48.35560213903743 7.2989999999999995 l0 5.4011 c0 0.74866 -0.57487 1.3235 -1.3235 1.3235 l-0.25401 0 l1.5775 5.9492 l-1.8984 0 l-1.5775 -5.9492 l-1.0561 0 l0.54813 0.41444 l0 5.5348 l-1.8449 0 l0 -11.898 l0 -1.6979 l-0.33422 -0.41444 l4.8396 0.013369 c0.74866 0 1.3235 0.57487 1.3235 1.3235 z M50.94920427807486 17.9011 l2.1524 0 l0 -9.7727 l-2.7005 0 l0.54813 0.41444 l0 9.3583 z M54.94650427807486 7.34 l0 11.35 c0 0.74866 -0.58824 1.3235 -1.3369 1.3235 l-4.5053 0 l0 -2.1123 l0 -11.471 l-0.33422 -0.41444 l4.8396 0 c0.73529 0 1.3369 0.61497 1.3369 1.3235 z M60.13370106951871 6.003 l3.5829 0 l0 2.1123 l-3.623 0 l0.54813 0.40107 c-0.053476 2.3529 -0.053476 7.0321 0 9.3717 l3.0749 0 l0 2.1123 l-3.5829 0 c-0.74866 0 -1.3235 -0.57487 -1.3235 -1.3235 l0 -11.35 c0 -0.74866 0.57487 -1.3235 1.3235 -1.3235 z M66.31019786096256 15.8021 l1.885 0 l-0.93583 -7.6738 z M63.943847860962556 20.026738 l1.6711 -13.596 l-0.33422 -0.40107 l3.5695 0 l1.7246 13.997 l-1.8583 0 l-0.25401 -2.1123 l-2.9545 -0.013369 l0.49465 0.3877 l-0.2139 1.738 l-1.8449 0 z M72.52677272727271 14.090900000000001 l0.54813 0.40107 l0 3.4225 l2.1524 0 l0 -3.8235 l-2.7005 0 z M73.07487272727272 8.556 l0 3.4091 l2.1524 0 l0 -3.8235 l-2.7005 0 z M77.07217272727272 7.353 l0 4.3449 c0 0.74866 -0.61497 1.3235 -1.3235 1.3235 c0.70856 0 1.3235 0.61497 1.3235 1.3235 l0 4.3583 c0 0.74866 -0.61497 1.3235 -1.3235 1.3235 l-4.5187 0 l0 -13.596 l-0.33422 -0.40107 l4.8529 0 c0.70856 0 1.3235 0.61497 1.3235 1.3235 z M79.71928877005347 19.973262 l-1.8449 0 l0 -13.583 l-0.33422 -0.41444 l2.1791 0 l0 13.997 z M80.4679152406417 6.003 l2.6203 0 l1.7112 7.6337 l0 -7.6203 l1.8316 0 l0 13.984 l-2.2861 0 l-1.6979 -7.5936 l0 7.607 l-1.8449 0 l0 -13.596 z M87.70053283422457 6.43 l-0.33422 -0.41444 l5.254 0 l0 2.1123 l-3.623 0 l0.54813 0.41444 l0 3.4091 l2.1658 0 l0 2.1257 l-2.7139 0 l0.54813 0.40107 l0 3.4225 l3.0749 0 l0 2.1123 l-4.9198 0 l0 -2.1123 l0 -3.8235 l0 -2.1257 l0 -5.5214 z M94.75931711229944 8.102 l-1.992 0 l0 -2.1257 l5.8289 0 l0 2.1257 l-2.5401 0 l0.54813 0.40107 l0 11.484 l-1.8449 0 l0 -11.885 z M104.7861010695187 7.34 l0 2.8877 l-1.8316 0 l0 -2.1123 l-2.7005 0 l0.53476 0.41444 l0 1.6979 l3.9973 4.9064 l0 2.1123 l0 1.4439 c0 0.70856 -0.57487 1.3235 -1.3235 1.3235 l-3.1818 0 c-0.74866 0 -1.3235 -0.61497 -1.3235 -1.3235 l0 -2.9813 l1.8316 0 l0 2.1925 l2.1658 0 l0 -2.1123 l-3.9973 -4.9064 l0 -3.5428 c0 -0.74866 0.57487 -1.3235 1.3235 -1.3235 l3.1818 0 c0.74866 0 1.3235 0.57487 1.3235 1.3235 z"></path></g><g id="SvgjsG1991" featureKey="RGJA4D-0" transform="matrix(0.8460665105104964,0,0,0.8460665105104964,84.61542051973103,191.95532875382992)" fill="#0a0a0a"><path d="M0.78877 6.390000000000001 l-0.33422 -0.41444 l5.254 0 l0 2.1123 l-3.623 0 l0.54813 0.41444 l0 3.4225 l2.1524 0 l0 2.1123 l-2.7005 0 l0.54813 0.41444 l0 5.5214 l-1.8449 0 l0 -13.583 z M12.8506251114082 19.973262 l-1.8449 0 l0 -13.583 l-0.33422 -0.41444 l2.1791 0 l0 13.997 z M18.254652094474153 6.003 l2.6203 0 l1.7112 7.6337 l0 -7.6203 l1.8316 0 l0 13.984 l-2.2861 0 l-1.6979 -7.5936 l0 7.607 l-1.8449 0 l0 -13.596 z M30.14267020053476 6.43 l-0.33422 -0.41444 l5.254 0 l0 2.1123 l-3.623 0 l0.54813 0.41444 l0 3.4091 l2.1658 0 l0 2.1257 l-2.7139 0 l0.54813 0.40107 l0 3.4225 l3.0749 0 l0 2.1123 l-4.9198 0 l0 -2.1123 l0 -3.8235 l0 -2.1257 l0 -5.5214 z M49.239580637254896 6.003 l3.5829 0 l0 2.1123 l-3.623 0 l0.54813 0.40107 c-0.053476 2.3529 -0.053476 7.0321 0 9.3717 l3.0749 0 l0 2.1123 l-3.5829 0 c-0.74866 0 -1.3235 -0.57487 -1.3235 -1.3235 l0 -11.35 c0 -0.74866 0.57487 -1.3235 1.3235 -1.3235 z M59.977833021390374 17.9011 l2.1524 0 l0 -11.898 l1.8449 0 l0 12.674 c0 0.74866 -0.61497 1.3235 -1.3235 1.3235 l-3.1818 0.013369 c-0.74866 0 -1.3235 -0.58824 -1.3235 -1.3369 l0 -12.259 l-0.013369 0 l-0.33422 -0.41444 l2.1791 0 l0 11.898 z M75.1279153520499 7.34 l0 2.8877 l-1.8316 0 l0 -2.1123 l-2.7005 0 l0.53476 0.41444 l0 1.6979 l3.9973 4.9064 l0 2.1123 l0 1.4439 c0 0.70856 -0.57487 1.3235 -1.3235 1.3235 l-3.1818 0 c-0.74866 0 -1.3235 -0.61497 -1.3235 -1.3235 l0 -2.9813 l1.8316 0 l0 2.1925 l2.1658 0 l0 -2.1123 l-3.9973 -4.9064 l0 -3.5428 c0 -0.74866 0.57487 -1.3235 1.3235 -1.3235 l3.1818 0 c0.74866 0 1.3235 0.57487 1.3235 1.3235 z M82.10947308377895 8.102 l-1.992 0 l0 -2.1257 l5.8289 0 l0 2.1257 l-2.5401 0 l0.54813 0.40107 l0 11.484 l-1.8449 0 l0 -11.885 z M92.9146784090909 17.9011 l2.1658 0 l0 -9.7727 l-2.7005 0 l0.53476 0.41444 l0 9.3583 z M96.91197840909089 7.34 l0 11.35 c0 0.74866 -0.57487 1.3235 -1.3235 1.3235 l-3.1818 0 c-0.74866 0 -1.3235 -0.57487 -1.3235 -1.3235 l0 -11.35 c0 -0.70856 0.57487 -1.3235 1.3235 -1.3235 l3.1818 0 c0.74866 0 1.3235 0.61497 1.3235 1.3235 z M102.0486593493761 6.016 l3.0882 0 l1.2433 4.7193 l1.2567 -4.7193 l2.754 0 l-0.013369 13.997 l-1.8316 0 l0 -10.267 l-2.1658 8.1283 l0 0.013369 l0 -0.013369 l0 0.013369 l0 -0.013369 l-2.1524 -8.1283 l0 10.267 l-1.8449 0 l0 -13.596 z M124.95572647058822 6.003 l3.5829 0 l0 2.1123 l-3.623 0 l0.54813 0.40107 c-0.053476 2.3529 -0.053476 7.0321 0 9.3717 l3.0749 0 l0 2.1123 l-3.5829 0 c-0.74866 0 -1.3235 -0.57487 -1.3235 -1.3235 l0 -11.35 c0 -0.74866 0.57487 -1.3235 1.3235 -1.3235 z M135.78762377450977 15.8021 l1.885 0 l-0.93583 -7.6738 z M133.42127377450979 20.026738 l1.6711 -13.596 l-0.33422 -0.40107 l3.5695 0 l1.7246 13.997 l-1.8583 0 l-0.25401 -2.1123 l-2.9545 -0.013369 l0.49465 0.3877 l-0.2139 1.738 l-1.8449 0 z M146.65959915329765 14.090900000000001 l0.54813 0.40107 l0 3.4225 l2.1524 0 l0 -3.8235 l-2.7005 0 z M147.20769915329765 8.556 l0 3.4091 l2.1524 0 l0 -3.8235 l-2.7005 0 z M151.20499915329765 7.353 l0 4.3449 c0 0.74866 -0.61497 1.3235 -1.3235 1.3235 c0.70856 0 1.3235 0.61497 1.3235 1.3235 l0 4.3583 c0 0.74866 -0.61497 1.3235 -1.3235 1.3235 l-4.5187 0 l0 -13.596 l-0.33422 -0.40107 l4.8529 0 c0.70856 0 1.3235 0.61497 1.3235 1.3235 z M158.5075157085561 19.973262 l-1.8449 0 l0 -13.583 l-0.33422 -0.41444 l2.1791 0 l0 13.997 z M163.9115426916221 6.003 l2.6203 0 l1.7112 7.6337 l0 -7.6203 l1.8316 0 l0 13.984 l-2.2861 0 l-1.6979 -7.5936 l0 7.607 l-1.8449 0 l0 -13.596 z M175.7995607976827 6.43 l-0.33422 -0.41444 l5.254 0 l0 2.1123 l-3.623 0 l0.54813 0.41444 l0 3.4091 l2.1658 0 l0 2.1257 l-2.7139 0 l0.54813 0.40107 l0 3.4225 l3.0749 0 l0 2.1123 l-4.9198 0 l0 -2.1123 l0 -3.8235 l0 -2.1257 l0 -5.5214 z M187.51374558823528 8.102 l-1.992 0 l0 -2.1257 l5.8289 0 l0 2.1257 l-2.5401 0 l0.54813 0.40107 l0 11.484 l-1.8449 0 l0 -11.885 z M198.61308192958998 11.9118 l2.1524 0 l0 -3.8369 l-2.7005 0 l0.54813 0.41444 l0 3.4225 z M202.59698192959 7.2989999999999995 l0 5.4011 c0 0.74866 -0.57487 1.3235 -1.3235 1.3235 l-0.25401 0 l1.5775 5.9492 l-1.8984 0 l-1.5775 -5.9492 l-1.0561 0 l0.54813 0.41444 l0 5.5348 l-1.8449 0 l0 -11.898 l0 -1.6979 l-0.33422 -0.41444 l4.8396 0.013369 c0.74866 0 1.3235 0.57487 1.3235 1.3235 z M207.2925006773618 6.003 l2.139 0 l1.484 5.9358 l1.4706 -5.9358 l1.8984 0 l-2.4332 9.7326 l-0.026738 0.12032 l0 4.1578 l-1.8316 0 l0 -4.1711 l-0.026738 -0.10695 l-2.3262 -9.3182 z"></path></g>
			</g>
		</svg>
	